<?xml version="1.0" standalone="no"?>
<!DOCTYPE svg PUBLIC "-//W3C//DTD SVG 20010904//EN"
 "http://www.w3.org/TR/2001/REC-SVG-20010904/DTD/svg10.dtd">
<svg version="1.0" xmlns="http://www.w3.org/2000/svg"
 width="260.000000pt" height="260.000000pt" viewBox="0 0 260.000000 260.000000"
 preserveAspectRatio="xMidYMid meet">
<metadata>
Created by potrace 1.14, written by Peter Selinger 2001-2017
</metadata>
<g transform="translate(0.000000,260.000000) scale(0.100000,-0.100000)"
fill="#000000" stroke="none">
<path d="M1158 2595 c-1 -1 -37 -5 -78 -9 -176 -15 -403 -64 -555 -121 -169
-63 -359 -181 -473 -295 l-53 -53 43 -19 c24 -11 126 -56 228 -100 102 -44
214 -93 249 -109 l64 -30 31 28 c17 15 36 33 41 39 18 18 99 71 151 97 127 64
273 97 447 101 216 5 380 -37 476 -121 81 -70 102 -174 55 -265 -26 -50 -108
-126 -219 -203 -327 -225 -413 -307 -473 -450 -20 -47 -44 -165 -36 -174 9
-10 716 -6 723 4 4 6 13 32 19 59 14 55 62 126 119 177 21 19 120 90 220 158
203 137 292 213 358 306 79 110 107 205 101 342 -13 319 -315 540 -847 619
-98 14 -578 30 -591 19z"/>
<path d="M1315 643 c-163 -30 -283 -105 -331 -208 -83 -176 55 -368 301 -420
80 -17 236 -14 305 5 179 49 286 157 295 298 11 188 -196 333 -470 330 -44 -1
-89 -3 -100 -5z"/>
</g>
</svg>
